<svg xmlns="http://www.w3.org/2000/svg" width="1200" height="560" viewBox="0 0 1200 560">
  <rect width="1200" height="560" rx="24" fill="#f8fafc"/>
  <text x="600" y="62" text-anchor="middle" fill="#0f172a" font-family="sans-serif" font-size="32" font-weight="700">美区 Apple 账号订阅流程（可选）</text>
  <g font-family="sans-serif">
    <rect x="55" y="145" width="230" height="160" rx="20" fill="#fff" stroke="#cbd5e1" stroke-width="2"/>
    <text x="170" y="205" text-anchor="middle" fill="#0f172a" font-size="25" font-weight="700">1. 核对账号地区</text>
    <text x="170" y="247" text-anchor="middle" fill="#475569" font-size="19">确认是美国区</text>
    <text x="170" y="278" text-anchor="middle" fill="#475569" font-size="19">不要混用其他区卡密</text>
    <path d="M300 225h70" stroke="#64748b" stroke-width="4"/>
    <path d="M358 211l18 14-18 14" fill="none" stroke="#64748b" stroke-width="4"/>
    <rect x="385" y="145" width="230" height="160" rx="20" fill="#fff" stroke="#cbd5e1" stroke-width="2"/>
    <text x="500" y="205" text-anchor="middle" fill="#0f172a" font-size="25" font-weight="700">2. 购买礼品卡</text>
    <text x="500" y="247" text-anchor="middle" fill="#475569" font-size="19">第三方网站下单</text>
    <text x="500" y="278" text-anchor="middle" fill="#475569" font-size="19">核对面额与手续费</text>
    <path d="M630 225h70" stroke="#64748b" stroke-width="4"/>
    <path d="M688 211l18 14-18 14" fill="none" stroke="#64748b" stroke-width="4"/>
    <rect x="715" y="145" width="230" height="160" rx="20" fill="#fff" stroke="#cbd5e1" stroke-width="2"/>
    <text x="830" y="205" text-anchor="middle" fill="#0f172a" font-size="25" font-weight="700">3. 兑换余额</text>
    <text x="830" y="247" text-anchor="middle" fill="#475569" font-size="19">App Store 兑换卡密</text>
    <text x="830" y="278" text-anchor="middle" fill="#475569" font-size="19">确认余额到账</text>
    <path d="M960 225h70" stroke="#64748b" stroke-width="4"/>
    <path d="M1018 211l18 14-18 14" fill="none" stroke="#64748b" stroke-width="4"/>
    <rect x="1040" y="145" width="120" height="160" rx="20" fill="#111827"/>
    <text x="1100" y="205" text-anchor="middle" fill="#fff" font-size="23" font-weight="700">4. 订阅</text>
    <text x="1100" y="247" text-anchor="middle" fill="#d1d5db" font-size="18">ChatGPT</text>
    <text x="1100" y="278" text-anchor="middle" fill="#d1d5db" font-size="18">Plus/Pro</text>
  </g>
  <rect x="55" y="365" width="1090" height="125" rx="18" fill="#fff7ed" stroke="#fdba74" stroke-width="2"/>
  <text x="85" y="411" fill="#9a3412" font-family="sans-serif" font-size="23" font-weight="700">风险提示</text>
  <text x="85" y="451" fill="#7c2d12" font-family="sans-serif" font-size="20">第三方卡密存在汇率、手续费、退款和账号地区限制；购买前请核对网站主体、条款与卡片适用区。</text>
</svg>
